<svg id="svg" xmlns="http://www.w3.org/2000/svg" xmlns:xlink="http://www.w3.org/1999/xlink" width="400" height="400" viewBox="0, 0, 400,400"><g id="svgg"><path id="path0" d="M189.473 51.623 C 185.774 51.793,181.904 52.119,180.873 52.346 C 179.843 52.573,177.380 52.959,175.400 53.203 C 171.239 53.716,164.656 55.047,163.200 55.670 C 162.650 55.905,161.300 56.333,160.200 56.619 C 152.394 58.655,149.988 59.395,145.956 61.002 C 143.450 62.000,140.860 63.068,140.200 63.375 C 139.540 63.682,137.830 64.426,136.400 65.029 C 134.970 65.633,133.158 66.529,132.374 67.021 C 131.589 67.514,129.492 68.649,127.713 69.543 C 124.267 71.276,117.133 75.495,116.800 75.998 C 116.690 76.164,115.711 76.861,114.625 77.548 C 103.489 84.584,84.625 103.459,77.500 114.693 C 76.889 115.657,76.207 116.661,75.986 116.923 C 73.906 119.388,64.000 137.694,64.000 139.072 C 64.000 139.404,63.732 140.154,63.405 140.738 C 62.815 141.792,62.070 143.740,60.932 147.200 C 60.607 148.190,60.141 149.360,59.898 149.800 C 59.401 150.699,57.350 157.938,56.725 161.000 C 56.500 162.100,55.975 164.093,55.558 165.428 C 55.141 166.764,54.794 168.384,54.786 169.028 C 54.778 169.673,54.497 171.370,54.162 172.800 C 53.526 175.509,52.977 181.862,52.555 191.400 C 52.283 197.533,53.235 212.919,54.188 217.800 C 54.489 219.340,54.856 221.494,55.005 222.586 C 55.153 223.678,55.528 224.933,55.837 225.375 C 56.147 225.817,56.400 226.745,56.400 227.437 C 56.400 228.129,56.737 229.754,57.150 231.048 C 57.562 232.342,58.030 234.180,58.190 235.133 C 58.350 236.086,58.732 237.346,59.038 237.933 C 59.344 238.520,59.596 239.226,59.598 239.503 C 59.599 239.779,60.230 241.599,61.000 243.546 C 61.770 245.493,62.400 247.339,62.400 247.649 C 62.400 248.785,72.642 268.654,74.057 270.263 C 74.414 270.668,74.831 271.411,74.984 271.913 C 75.296 272.935,80.670 280.282,81.759 281.173 C 82.144 281.489,82.791 282.389,83.198 283.173 C 83.604 283.958,84.806 285.535,85.869 286.677 C 86.931 287.819,88.463 289.529,89.273 290.477 C 94.089 296.112,101.875 303.228,111.294 310.603 C 112.556 311.592,113.707 312.400,113.852 312.400 C 113.998 312.400,115.935 313.604,118.158 315.076 C 120.381 316.548,122.855 318.123,123.656 318.576 C 129.559 321.915,134.788 324.652,135.800 324.934 C 136.460 325.118,137.284 325.523,137.631 325.834 C 137.979 326.145,138.519 326.401,138.831 326.401 C 139.144 326.402,139.942 326.733,140.604 327.137 C 141.266 327.541,142.976 328.273,144.404 328.764 C 145.832 329.255,147.990 330.078,149.200 330.593 C 150.410 331.108,154.190 332.273,157.600 333.182 C 161.010 334.091,164.676 335.097,165.746 335.417 C 166.816 335.738,168.183 336.000,168.782 336.000 C 169.382 336.000,170.756 336.270,171.836 336.599 C 172.916 336.929,175.690 337.379,178.000 337.599 C 180.310 337.820,183.550 338.191,185.200 338.424 C 189.125 338.978,209.778 338.997,211.833 338.449 C 212.695 338.219,215.920 337.824,219.000 337.573 C 222.080 337.321,224.780 336.971,225.000 336.795 C 225.220 336.619,226.300 336.353,227.400 336.205 C 230.096 335.841,235.193 334.600,241.000 332.893 C 243.640 332.117,246.676 331.243,247.746 330.951 C 248.817 330.660,249.897 330.261,250.146 330.066 C 250.396 329.870,251.113 329.587,251.741 329.437 C 252.369 329.287,254.709 328.292,256.941 327.225 C 259.173 326.159,261.628 325.081,262.396 324.831 C 263.498 324.471,271.168 320.362,274.400 318.400 C 274.730 318.200,275.900 317.512,277.000 316.871 C 278.100 316.230,279.811 315.097,280.801 314.353 C 281.792 313.609,283.322 312.508,284.201 311.908 C 291.464 306.945,295.754 303.346,303.212 295.960 C 308.978 290.250,311.828 287.225,312.800 285.783 C 314.106 283.844,316.979 280.126,318.195 278.800 C 318.901 278.030,320.148 276.230,320.965 274.800 C 323.321 270.680,325.310 267.501,326.500 265.954 C 327.105 265.168,327.600 264.362,327.600 264.164 C 327.600 263.966,329.128 260.743,330.995 257.002 C 333.926 251.129,337.105 243.112,339.006 236.800 C 339.305 235.810,339.822 234.280,340.157 233.400 C 340.491 232.520,340.773 231.456,340.782 231.035 C 340.792 230.614,341.065 229.354,341.389 228.235 C 342.155 225.591,343.475 218.511,343.819 215.200 C 343.968 213.770,344.275 212.370,344.503 212.089 C 346.225 209.961,345.106 179.170,342.956 169.528 C 342.629 168.058,342.210 165.988,342.027 164.928 C 341.467 161.691,338.466 150.706,338.019 150.259 C 337.789 150.029,337.600 149.526,337.600 149.142 C 337.600 148.759,336.949 146.860,336.153 144.922 C 335.357 142.985,334.206 140.140,333.595 138.600 C 332.984 137.060,331.815 134.630,330.996 133.200 C 330.178 131.770,328.899 129.340,328.153 127.800 C 326.232 123.831,324.597 121.068,321.492 116.545 C 318.651 112.406,318.113 111.664,315.197 107.849 C 314.209 106.555,313.013 104.923,312.541 104.222 C 307.800 97.187,287.504 79.565,278.193 74.400 C 276.805 73.630,275.339 72.715,274.935 72.366 C 273.938 71.507,261.466 64.800,260.864 64.800 C 260.601 64.800,259.373 64.260,258.136 63.600 C 256.899 62.940,255.642 62.400,255.342 62.400 C 255.042 62.400,254.125 62.040,253.304 61.600 C 252.484 61.160,251.530 60.800,251.186 60.800 C 250.842 60.800,250.389 60.644,250.180 60.454 C 249.971 60.264,246.650 59.182,242.800 58.051 C 238.950 56.919,235.260 55.823,234.600 55.616 C 231.980 54.793,220.175 52.732,214.000 52.020 C 209.333 51.482,196.894 51.281,189.473 51.623 M219.720 94.157 C 220.995 94.510,222.866 94.800,223.878 94.800 C 226.005 94.800,232.086 96.133,235.008 97.240 C 236.112 97.658,237.379 98.000,237.823 98.000 C 238.267 98.000,239.289 98.336,240.093 98.746 C 240.898 99.156,242.088 99.598,242.739 99.728 C 243.390 99.858,245.065 100.486,246.461 101.123 C 247.858 101.760,250.170 102.779,251.600 103.388 C 255.286 104.957,255.405 105.122,254.132 106.910 C 253.342 108.021,252.788 108.400,251.956 108.400 C 251.342 108.400,250.696 108.626,250.520 108.901 C 250.344 109.177,249.120 110.108,247.800 110.970 C 244.873 112.882,237.140 120.613,236.423 122.344 C 236.137 123.035,235.740 123.600,235.542 123.600 C 235.343 123.600,235.005 124.005,234.791 124.500 C 234.577 124.995,234.221 125.670,234.001 126.000 C 233.780 126.330,233.420 127.050,233.201 127.600 C 232.981 128.150,232.634 128.870,232.429 129.200 C 231.565 130.591,230.408 133.536,229.998 135.384 C 229.757 136.475,229.343 137.627,229.080 137.945 C 228.392 138.773,228.401 158.037,229.089 158.866 C 229.357 159.190,229.787 160.431,230.042 161.623 C 230.298 162.816,230.736 164.154,231.014 164.596 C 231.293 165.038,231.643 165.985,231.793 166.700 C 231.942 167.415,232.212 168.000,232.393 168.000 C 232.574 168.000,232.898 168.505,233.113 169.122 C 233.328 169.739,234.516 171.739,235.752 173.565 C 236.988 175.391,238.000 176.942,238.000 177.012 C 238.000 177.382,246.253 185.200,246.643 185.200 C 246.734 185.200,247.842 185.899,249.105 186.752 C 250.367 187.606,251.850 188.437,252.400 188.600 C 252.950 188.762,253.670 189.129,254.000 189.416 C 254.330 189.703,255.088 190.059,255.684 190.208 C 256.280 190.357,256.977 190.731,257.233 191.039 C 257.489 191.348,258.178 191.600,258.764 191.600 C 259.351 191.600,260.482 191.932,261.279 192.338 C 262.075 192.744,264.048 193.199,265.663 193.349 C 267.279 193.499,269.950 193.794,271.600 194.006 C 275.382 194.490,285.355 193.466,287.826 192.341 C 288.721 191.933,289.936 191.600,290.526 191.600 C 291.117 191.600,291.600 191.427,291.600 191.215 C 291.600 191.004,292.365 190.625,293.300 190.374 C 294.235 190.123,295.090 189.786,295.200 189.625 C 295.310 189.465,296.570 188.745,298.000 188.027 C 300.642 186.699,303.021 184.979,305.669 182.483 C 307.652 180.613,308.975 180.878,309.620 183.275 C 310.390 186.132,309.951 208.606,309.088 210.549 C 308.710 211.401,308.400 212.953,308.400 213.999 C 308.400 215.044,308.122 216.687,307.782 217.650 C 307.443 218.612,306.924 220.480,306.630 221.800 C 306.070 224.313,305.466 226.187,304.565 228.200 C 304.269 228.860,303.904 229.940,303.752 230.600 C 303.601 231.260,303.145 232.427,302.739 233.194 C 302.332 233.961,302.000 234.832,302.000 235.131 C 302.000 235.430,301.640 236.131,301.200 236.691 C 300.760 237.250,300.388 237.999,300.373 238.354 C 300.359 238.709,299.815 239.900,299.164 241.000 C 298.514 242.100,297.689 243.675,297.330 244.500 C 296.972 245.325,296.545 246.000,296.383 246.000 C 296.220 246.000,295.977 246.437,295.843 246.972 C 295.709 247.507,295.374 248.189,295.099 248.489 C 294.825 248.789,294.420 249.320,294.200 249.670 C 293.233 251.210,290.606 255.018,290.386 255.200 C 290.252 255.310,289.193 256.633,288.032 258.140 C 286.871 259.647,285.623 261.202,285.260 261.596 C 283.574 263.426,277.901 269.200,277.790 269.200 C 277.721 269.200,276.890 269.945,275.943 270.855 C 274.996 271.765,273.226 273.248,272.011 274.152 C 270.795 275.056,269.656 276.021,269.480 276.298 C 269.304 276.574,268.931 276.800,268.650 276.800 C 268.369 276.800,267.717 277.250,267.200 277.800 C 266.683 278.350,266.119 278.800,265.946 278.800 C 265.773 278.800,264.177 279.790,262.400 281.000 C 260.623 282.210,258.930 283.200,258.638 283.200 C 258.347 283.200,257.679 283.522,257.154 283.916 C 256.629 284.310,255.750 284.848,255.200 285.113 C 254.650 285.378,253.930 285.764,253.600 285.972 C 253.270 286.180,252.145 286.722,251.100 287.175 C 250.055 287.629,248.415 288.360,247.456 288.800 C 246.497 289.240,245.439 289.600,245.105 289.600 C 244.771 289.600,244.278 289.865,244.009 290.189 C 243.740 290.514,242.865 290.902,242.064 291.052 C 241.263 291.202,239.886 291.653,239.004 292.054 C 238.122 292.455,236.765 292.786,235.989 292.791 C 235.213 292.796,234.192 293.071,233.719 293.401 C 233.247 293.732,231.812 294.171,230.530 294.377 C 229.249 294.582,227.216 295.031,226.013 295.375 C 224.810 295.719,222.650 296.000,221.213 296.000 C 219.776 296.000,217.340 296.267,215.800 296.593 C 212.568 297.278,200.989 297.385,197.800 296.760 C 196.700 296.545,193.906 296.215,191.592 296.028 C 189.278 295.841,186.752 295.424,185.980 295.101 C 185.207 294.778,183.546 294.385,182.287 294.228 C 181.029 294.071,179.773 293.716,179.495 293.438 C 179.218 293.161,178.029 292.820,176.853 292.681 C 175.677 292.542,174.509 292.262,174.258 292.060 C 174.006 291.858,173.170 291.564,172.400 291.407 C 171.630 291.251,170.405 290.780,169.677 290.361 C 168.950 289.943,168.085 289.600,167.756 289.600 C 167.428 289.600,166.493 289.262,165.679 288.849 C 164.866 288.435,163.300 287.689,162.200 287.190 C 161.100 286.690,159.930 286.125,159.600 285.933 C 159.270 285.741,158.389 285.304,157.642 284.962 C 156.895 284.620,156.027 284.084,155.713 283.770 C 155.399 283.457,154.900 283.200,154.603 283.200 C 153.859 283.200,145.762 277.928,143.699 276.100 C 143.140 275.605,142.570 275.200,142.431 275.200 C 142.292 275.200,141.553 274.622,140.789 273.915 C 140.025 273.208,138.410 271.791,137.200 270.765 C 134.563 268.531,130.010 264.001,127.800 261.413 C 126.920 260.383,125.840 259.119,125.400 258.605 C 124.960 258.091,124.330 257.270,124.000 256.780 C 123.670 256.290,123.035 255.419,122.589 254.844 C 122.143 254.270,121.243 252.990,120.590 252.000 C 119.937 251.010,119.292 250.110,119.157 250.000 C 119.022 249.890,118.609 249.260,118.240 248.600 C 117.871 247.940,117.140 246.680,116.616 245.800 C 114.814 242.772,112.000 237.014,112.000 236.357 C 112.000 235.994,111.728 235.473,111.396 235.197 C 111.064 234.922,110.683 234.011,110.549 233.173 C 110.415 232.335,110.067 231.558,109.775 231.446 C 109.483 231.334,109.117 230.558,108.962 229.721 C 108.806 228.884,108.457 227.840,108.185 227.400 C 107.912 226.960,107.564 225.886,107.411 225.014 C 107.257 224.141,106.898 222.971,106.613 222.414 C 106.327 221.856,105.970 220.410,105.818 219.200 C 105.666 217.990,105.302 216.460,105.007 215.800 C 104.713 215.140,104.350 213.340,104.200 211.800 C 104.050 210.260,103.673 207.491,103.363 205.648 C 102.724 201.841,102.639 189.097,103.230 185.600 C 103.435 184.390,103.786 181.780,104.011 179.800 C 104.236 177.820,104.686 175.521,105.010 174.692 C 105.335 173.862,105.608 172.692,105.618 172.092 C 105.627 171.491,105.911 170.280,106.248 169.400 C 106.585 168.520,107.095 166.765,107.380 165.501 C 107.666 164.237,108.079 162.977,108.298 162.701 C 108.517 162.425,108.814 161.543,108.958 160.740 C 109.103 159.937,109.486 159.060,109.811 158.791 C 110.135 158.522,110.402 158.009,110.404 157.651 C 110.406 157.293,110.850 156.100,111.391 155.000 C 111.932 153.900,112.381 152.707,112.387 152.349 C 112.394 151.991,112.658 151.483,112.974 151.221 C 113.290 150.959,113.664 150.219,113.805 149.577 C 113.946 148.935,114.216 148.314,114.405 148.197 C 114.595 148.080,115.001 147.493,115.309 146.892 C 115.820 145.897,116.602 144.501,118.062 141.982 C 118.358 141.472,119.274 140.142,120.098 139.027 C 120.922 137.912,121.597 136.812,121.598 136.582 C 121.599 136.353,122.275 135.432,123.100 134.537 C 123.925 133.641,124.987 132.417,125.461 131.816 C 128.102 128.465,129.341 127.087,132.664 123.812 C 136.511 120.020,139.629 117.249,140.740 116.635 C 141.103 116.435,141.544 116.030,141.720 115.735 C 141.896 115.441,142.258 115.200,142.524 115.200 C 142.790 115.200,143.232 114.840,143.507 114.400 C 143.782 113.960,144.275 113.600,144.603 113.600 C 144.932 113.600,145.200 113.438,145.200 113.240 C 145.200 113.041,145.866 112.456,146.681 111.940 C 147.496 111.423,148.621 110.689,149.181 110.310 C 149.741 109.930,150.773 109.300,151.474 108.910 C 152.175 108.519,154.155 107.366,155.874 106.347 C 157.593 105.328,160.170 104.002,161.599 103.400 C 163.029 102.799,164.554 102.057,164.988 101.753 C 165.423 101.449,166.026 101.200,166.329 101.200 C 166.631 101.200,167.446 100.938,168.140 100.618 C 169.898 99.806,172.706 98.804,174.600 98.314 C 175.480 98.086,176.854 97.634,177.654 97.309 C 178.454 96.985,180.254 96.482,181.654 96.191 C 183.054 95.901,184.920 95.473,185.800 95.241 C 186.680 95.009,188.228 94.815,189.240 94.810 C 190.252 94.804,191.602 94.621,192.240 94.403 C 196.085 93.086,215.242 92.914,219.720 94.157 " stroke="none" fill="#f9fbfb" fill-rule="evenodd"></path><path id="path1" d="M204.400 94.909 C 204.290 95.019,200.780 95.327,196.600 95.595 C 192.420 95.862,188.658 96.263,188.240 96.487 C 187.822 96.710,186.119 97.061,184.455 97.268 C 182.791 97.475,181.231 97.809,180.987 98.010 C 180.744 98.212,179.599 98.580,178.442 98.828 C 177.285 99.077,175.857 99.531,175.269 99.837 C 174.681 100.144,173.840 100.402,173.400 100.411 C 172.960 100.420,171.880 100.775,171.000 101.200 C 170.120 101.625,169.130 101.980,168.800 101.989 C 168.470 101.998,167.660 102.363,167.000 102.800 C 166.340 103.237,165.552 103.596,165.248 103.597 C 164.667 103.600,158.520 106.616,155.800 108.233 C 154.920 108.756,153.750 109.411,153.200 109.689 C 152.650 109.967,152.020 110.333,151.800 110.503 C 150.968 111.145,148.357 112.800,148.177 112.800 C 148.010 112.800,144.395 115.574,142.800 116.926 C 142.470 117.206,141.216 118.237,140.014 119.217 C 137.360 121.382,130.797 127.893,128.600 130.541 C 127.720 131.602,126.723 132.769,126.385 133.135 C 125.095 134.530,119.200 143.020,119.200 143.484 C 119.200 143.623,118.950 144.021,118.645 144.369 C 118.340 144.716,117.529 146.064,116.841 147.364 C 116.154 148.664,115.428 149.925,115.228 150.166 C 115.028 150.407,114.732 151.143,114.571 151.802 C 114.410 152.461,113.945 153.429,113.539 153.954 C 113.133 154.479,112.800 155.209,112.800 155.577 C 112.800 155.946,112.536 156.596,112.213 157.024 C 111.890 157.451,111.620 158.058,111.613 158.374 C 111.606 158.689,111.253 159.679,110.829 160.574 C 110.404 161.468,109.859 162.957,109.618 163.883 C 109.376 164.809,109.003 165.674,108.789 165.807 C 108.575 165.939,108.392 166.712,108.382 167.524 C 108.373 168.336,108.089 169.720,107.752 170.600 C 107.416 171.480,106.908 173.651,106.625 175.424 C 106.341 177.197,105.865 179.087,105.567 179.624 C 104.806 180.992,104.796 208.136,105.555 210.800 C 105.837 211.790,106.308 213.860,106.601 215.400 C 106.895 216.940,107.411 218.920,107.750 219.800 C 108.088 220.680,108.373 221.901,108.382 222.514 C 108.392 223.127,108.650 224.027,108.955 224.514 C 109.260 225.001,109.636 226.120,109.789 227.000 C 109.942 227.880,110.298 228.870,110.580 229.200 C 110.862 229.530,111.217 230.340,111.370 231.000 C 111.835 233.014,116.178 241.982,118.924 246.600 C 120.676 249.545,125.380 256.225,126.248 257.000 C 126.495 257.220,127.515 258.424,128.515 259.675 C 131.949 263.971,143.578 274.800,144.756 274.800 C 144.978 274.800,145.304 275.029,145.480 275.310 C 145.898 275.976,154.083 281.332,156.600 282.586 C 157.260 282.915,158.115 283.368,158.500 283.592 C 160.820 284.944,160.155 284.628,166.000 287.163 C 168.090 288.070,169.953 288.809,170.140 288.806 C 170.326 288.803,171.046 289.069,171.740 289.397 C 173.210 290.094,176.556 291.086,179.400 291.668 C 180.500 291.893,181.940 292.324,182.600 292.625 C 183.260 292.926,184.970 293.292,186.400 293.438 C 187.830 293.584,189.810 293.988,190.800 294.337 C 193.207 295.185,220.442 295.319,221.893 294.490 C 222.384 294.209,224.255 293.795,226.051 293.570 C 227.847 293.345,229.785 292.920,230.358 292.627 C 230.931 292.334,232.390 291.963,233.600 291.802 C 234.810 291.642,236.027 291.327,236.304 291.103 C 236.581 290.879,237.661 290.539,238.704 290.348 C 239.747 290.157,241.140 289.750,241.800 289.444 C 245.477 287.736,246.719 287.200,247.000 287.200 C 247.326 287.200,250.561 285.762,251.600 285.155 C 251.930 284.962,253.460 284.150,255.000 283.351 C 259.349 281.094,260.068 280.685,262.062 279.337 C 263.087 278.644,264.302 277.958,264.762 277.812 C 265.223 277.666,265.600 277.409,265.600 277.240 C 265.600 277.072,266.455 276.377,267.500 275.695 C 274.604 271.058,286.192 258.960,291.902 250.218 C 293.058 248.448,294.186 246.730,294.409 246.400 C 295.135 245.327,297.162 241.469,298.612 238.400 C 299.392 236.750,300.293 234.922,300.615 234.338 C 300.937 233.754,301.201 232.944,301.203 232.538 C 301.204 232.132,301.563 231.260,302.000 230.600 C 302.437 229.940,302.796 229.035,302.797 228.589 C 302.799 228.143,303.072 227.390,303.404 226.916 C 303.736 226.441,304.118 225.186,304.252 224.127 C 304.386 223.067,304.724 221.831,305.004 221.381 C 305.283 220.931,305.702 219.341,305.935 217.848 C 306.167 216.355,306.547 214.905,306.779 214.626 C 307.011 214.346,307.303 212.696,307.428 210.959 C 307.554 209.221,307.926 206.450,308.255 204.800 C 308.911 201.513,308.845 188.002,308.159 185.033 C 307.841 183.654,306.800 182.494,306.800 183.519 C 306.800 184.024,301.645 188.000,300.990 188.000 C 300.713 188.000,300.395 188.225,300.284 188.500 C 300.173 188.775,299.298 189.392,298.341 189.871 C 295.214 191.436,292.131 192.800,291.723 192.800 C 291.503 192.800,290.782 193.070,290.121 193.399 C 289.460 193.729,288.038 194.114,286.960 194.256 C 285.882 194.397,284.481 194.774,283.846 195.094 C 282.083 195.984,267.608 195.996,265.400 195.110 C 264.520 194.757,262.990 194.354,262.000 194.214 C 261.010 194.074,259.840 193.727,259.400 193.443 C 258.960 193.159,258.112 192.806,257.516 192.660 C 256.503 192.410,251.433 190.023,248.507 188.418 C 245.218 186.613,237.213 178.923,234.744 175.195 C 232.579 171.926,229.200 165.152,229.200 164.080 C 229.200 163.565,228.943 162.886,228.629 162.572 C 228.315 162.258,227.950 160.965,227.818 159.700 C 227.687 158.435,227.313 156.590,226.988 155.600 C 226.185 153.157,226.171 143.426,226.967 141.308 C 227.279 140.479,227.650 138.810,227.791 137.600 C 227.932 136.390,228.278 135.040,228.560 134.600 C 228.841 134.160,229.192 133.184,229.340 132.430 C 230.430 126.862,237.711 116.802,244.408 111.611 C 245.394 110.847,246.380 110.079,246.600 109.905 C 247.869 108.901,250.111 107.600,250.572 107.600 C 250.867 107.600,251.399 107.156,251.754 106.614 C 252.520 105.445,252.553 105.200,251.944 105.200 C 251.467 105.200,248.843 104.063,246.321 102.763 C 245.507 102.343,244.562 102.000,244.219 102.000 C 243.877 102.000,242.925 101.640,242.104 101.200 C 241.284 100.760,240.249 100.399,239.806 100.398 C 239.363 100.396,238.519 100.144,237.931 99.837 C 237.343 99.531,235.934 99.081,234.800 98.837 C 233.666 98.594,232.433 98.232,232.059 98.031 C 231.685 97.831,229.959 97.470,228.224 97.229 C 226.489 96.987,224.874 96.632,224.635 96.438 C 224.396 96.244,221.230 95.886,217.600 95.641 C 213.970 95.396,209.560 95.086,207.800 94.952 C 206.040 94.819,204.510 94.799,204.400 94.909 " stroke="none" fill="#2b2444" fill-rule="evenodd"></path><path id="path2" d="M0.000 200.000 L 0.000 400.000 200.000 400.000 L 400.000 400.000 400.000 200.000 L 400.000 0.000 200.000 0.000 L 0.000 0.000 0.000 200.000 M214.000 49.639 C 222.496 50.060,223.123 50.145,225.204 51.163 C 226.549 51.820,228.187 52.272,229.404 52.320 C 234.170 52.511,236.117 52.930,243.951 55.451 C 245.574 55.973,247.214 56.400,247.596 56.400 C 247.978 56.400,248.964 56.935,249.787 57.590 C 251.207 58.718,251.732 58.886,255.292 59.352 C 256.113 59.459,257.733 60.158,258.892 60.904 C 262.511 63.233,262.942 63.458,265.200 64.196 C 266.410 64.591,268.930 65.699,270.800 66.657 C 272.670 67.615,274.515 68.399,274.900 68.399 C 275.790 68.400,278.800 71.297,278.800 72.153 C 278.800 72.539,279.131 72.800,279.620 72.800 C 281.155 72.800,285.734 75.788,291.600 80.619 C 292.810 81.616,295.053 83.459,296.584 84.716 C 298.116 85.972,300.300 87.900,301.438 89.000 C 302.577 90.100,304.528 91.880,305.774 92.955 C 307.020 94.031,308.418 95.567,308.879 96.369 C 309.341 97.171,310.317 98.271,311.048 98.814 C 311.779 99.356,312.640 100.340,312.962 101.000 C 313.283 101.660,314.063 102.740,314.694 103.400 C 316.368 105.150,320.528 110.713,321.730 112.807 C 322.301 113.802,323.346 115.206,324.053 115.929 C 325.635 117.548,326.206 118.619,326.565 120.637 C 326.996 123.063,327.213 123.600,327.765 123.600 C 328.600 123.600,329.494 124.881,329.999 126.800 C 330.260 127.790,331.157 129.512,331.994 130.626 C 332.830 131.741,333.831 133.631,334.217 134.826 C 335.414 138.536,336.067 139.924,337.047 140.844 C 338.058 141.794,339.599 145.456,339.601 146.915 C 339.602 147.402,339.949 148.367,340.371 149.059 C 340.793 149.752,341.257 151.192,341.401 152.259 C 341.704 154.498,342.640 157.837,343.290 159.000 C 344.007 160.282,344.750 164.300,345.030 168.400 C 345.212 171.069,345.560 172.795,346.201 174.200 C 347.634 177.346,348.343 202.531,347.174 208.800 C 346.743 211.110,346.208 215.467,345.984 218.482 C 345.696 222.362,345.350 224.465,344.797 225.682 C 344.369 226.627,344.006 228.300,343.991 229.400 C 343.977 230.500,343.705 232.120,343.388 233.000 C 343.071 233.880,342.809 234.933,342.806 235.340 C 342.799 236.210,342.089 237.896,340.002 242.000 C 339.163 243.650,338.259 246.072,337.993 247.381 C 337.727 248.691,337.271 250.311,336.979 250.981 C 336.686 251.652,336.142 253.237,335.767 254.505 C 335.302 256.084,334.551 257.385,333.386 258.637 C 332.122 259.994,331.412 261.288,330.624 263.674 C 329.453 267.217,328.578 268.800,327.790 268.800 C 326.990 268.800,325.299 271.030,324.993 272.490 C 324.841 273.211,324.212 274.340,323.595 275.000 C 322.978 275.660,322.204 276.854,321.876 277.654 C 321.548 278.454,320.604 279.714,319.780 280.454 C 317.200 282.771,316.437 283.723,316.163 284.968 C 315.994 285.738,314.848 287.192,312.995 288.987 C 311.399 290.534,309.691 292.610,309.201 293.600 C 308.218 295.585,307.141 296.701,304.182 298.800 C 303.096 299.570,300.676 301.750,298.804 303.645 C 294.634 307.866,293.097 309.037,288.800 311.265 C 288.250 311.550,287.710 311.897,287.600 312.036 C 287.490 312.175,286.860 312.566,286.200 312.905 C 285.540 313.244,283.954 314.520,282.676 315.741 C 280.320 317.990,274.143 322.000,273.033 322.000 C 272.700 322.000,271.791 322.559,271.013 323.242 C 270.068 324.072,268.333 324.876,265.789 325.664 C 262.691 326.623,261.739 327.112,260.690 328.282 C 259.981 329.073,259.081 330.025,258.691 330.398 C 257.704 331.342,252.755 332.816,245.325 334.380 C 243.304 334.806,241.078 335.449,240.380 335.811 C 237.952 337.066,235.864 337.607,231.226 338.181 C 228.661 338.498,226.031 338.963,225.381 339.213 C 224.732 339.463,222.130 339.833,219.600 340.034 C 215.265 340.380,212.084 340.732,206.000 341.539 C 204.563 341.730,201.521 341.734,199.200 341.547 C 196.890 341.362,190.680 341.008,185.400 340.761 C 178.916 340.457,175.605 340.149,175.200 339.812 C 174.209 338.988,172.005 338.401,169.840 338.384 C 166.948 338.362,162.725 337.469,159.000 336.093 C 157.240 335.443,154.820 334.785,153.621 334.632 C 152.423 334.478,150.483 333.912,149.310 333.376 C 148.136 332.839,146.687 332.397,146.088 332.393 C 143.007 332.374,137.347 330.223,135.951 328.541 C 135.166 327.595,132.923 326.277,130.339 325.243 C 129.095 324.746,127.125 323.725,125.960 322.974 C 124.796 322.224,123.203 321.407,122.421 321.160 C 121.640 320.912,120.100 319.847,119.000 318.794 C 117.900 317.741,116.011 316.386,114.802 315.784 C 111.837 314.305,105.661 309.839,104.285 308.179 C 103.672 307.440,102.502 306.454,101.685 305.990 C 100.775 305.472,99.880 304.497,99.374 303.472 C 98.750 302.207,98.068 301.566,96.574 300.841 C 95.489 300.314,94.150 299.289,93.600 298.565 C 90.498 294.477,87.370 291.338,85.526 290.462 C 84.028 289.752,83.403 289.172,82.938 288.062 C 81.146 283.786,80.323 282.540,78.219 280.917 C 77.020 279.991,75.739 278.641,75.373 277.917 C 75.008 277.193,74.294 276.150,73.788 275.600 C 73.282 275.050,71.357 271.630,69.510 268.000 C 67.664 264.370,65.493 260.442,64.687 259.271 C 63.207 257.121,62.406 255.005,62.402 253.235 C 62.401 252.704,61.977 251.534,61.459 250.635 C 60.941 249.736,60.310 248.148,60.055 247.106 C 59.800 246.065,58.792 243.501,57.814 241.408 C 56.836 239.315,55.830 236.477,55.578 235.101 C 55.326 233.726,55.033 232.150,54.927 231.600 C 54.821 231.050,54.593 229.725,54.420 228.656 C 54.247 227.587,53.867 226.565,53.574 226.384 C 53.237 226.176,52.863 224.402,52.551 221.528 C 52.281 219.038,51.587 214.316,51.011 211.036 C 50.115 205.942,49.983 204.193,50.105 199.036 C 50.340 189.159,51.211 176.714,51.789 175.000 C 52.085 174.120,52.441 171.418,52.579 168.995 C 52.718 166.572,53.172 163.332,53.589 161.795 C 54.006 160.258,54.734 157.470,55.206 155.600 C 55.679 153.730,56.568 151.210,57.182 150.000 C 57.795 148.790,58.415 146.985,58.560 145.989 C 58.704 144.994,59.627 142.588,60.611 140.644 C 61.595 138.700,62.400 136.777,62.400 136.370 C 62.400 134.566,64.060 131.322,65.892 129.542 C 67.737 127.752,67.823 127.562,68.507 123.827 C 69.249 119.767,70.235 117.701,72.263 115.954 C 73.390 114.983,76.394 111.214,77.723 109.103 C 78.103 108.500,79.495 106.977,80.816 105.720 C 82.357 104.252,83.378 102.900,83.663 101.946 C 83.908 101.128,84.611 99.951,85.224 99.330 C 85.837 98.708,86.577 97.941,86.869 97.624 C 92.666 91.331,100.563 83.987,101.928 83.619 C 102.977 83.337,104.082 82.562,105.239 81.298 C 106.923 79.458,108.552 78.040,110.407 76.800 C 111.847 75.837,114.473 73.686,116.200 72.053 C 118.541 69.841,119.476 69.352,122.752 68.623 C 126.168 67.864,127.725 67.154,129.400 65.592 C 130.641 64.434,135.033 62.400,136.291 62.400 C 137.121 62.400,140.811 60.546,141.400 59.834 C 142.676 58.290,147.159 56.950,153.600 56.185 C 154.844 56.037,157.007 55.327,158.576 54.550 C 161.659 53.026,166.542 52.000,170.717 52.000 C 172.822 52.000,173.681 51.794,175.140 50.939 C 177.760 49.403,196.559 48.774,214.000 49.639 M332.800 272.776 C 332.800 273.447,332.091 273.613,331.854 272.998 C 331.715 272.635,331.856 272.400,332.213 272.400 C 332.536 272.400,332.800 272.569,332.800 272.776 " stroke="none" fill="#85e4dc" fill-rule="evenodd"></path><path id="path3" d="M201.800 94.020 C 195.809 94.475,187.368 95.566,184.930 96.201 C 183.666 96.531,182.211 96.800,181.696 96.800 C 181.181 96.800,180.227 97.076,179.575 97.413 C 178.923 97.750,177.627 98.190,176.695 98.390 C 174.996 98.755,170.900 100.106,169.400 100.796 C 168.960 100.999,167.430 101.632,166.000 102.203 C 162.915 103.435,156.850 106.357,156.000 107.020 C 155.670 107.277,154.395 108.030,153.167 108.694 C 150.606 110.077,144.099 114.487,142.406 115.987 C 141.778 116.544,139.494 118.523,137.332 120.385 C 132.416 124.617,126.033 131.629,122.568 136.605 C 122.110 137.262,121.084 138.731,120.287 139.868 C 117.997 143.139,114.333 149.841,112.454 154.200 C 111.505 156.400,110.479 158.740,110.173 159.400 C 109.868 160.060,109.156 162.130,108.593 164.000 C 108.029 165.870,107.212 168.570,106.778 170.000 C 106.344 171.430,105.989 172.960,105.990 173.400 C 105.991 173.840,105.733 175.050,105.418 176.089 C 103.221 183.328,103.076 207.814,105.197 213.391 C 105.391 213.903,105.754 215.465,106.003 216.861 C 106.252 218.258,106.715 220.210,107.032 221.200 C 107.349 222.190,108.041 224.440,108.571 226.200 C 109.100 227.960,109.817 229.940,110.164 230.600 C 110.511 231.260,110.796 232.034,110.798 232.321 C 110.799 232.607,111.138 233.507,111.552 234.321 C 111.965 235.134,112.576 236.430,112.909 237.200 C 114.050 239.839,115.690 243.000,116.245 243.631 C 116.550 243.979,116.800 244.413,116.800 244.596 C 116.800 244.916,117.704 246.425,120.759 251.200 C 128.301 262.992,142.579 276.014,155.925 283.274 C 161.475 286.294,164.072 287.600,164.525 287.600 C 164.793 287.600,165.684 287.960,166.504 288.400 C 167.325 288.840,168.203 289.200,168.455 289.200 C 168.706 289.200,169.652 289.539,170.556 289.954 C 172.358 290.780,177.512 292.415,178.286 292.406 C 178.553 292.403,179.633 292.696,180.686 293.058 C 181.739 293.420,183.770 293.947,185.200 294.229 C 186.630 294.510,188.610 294.915,189.600 295.128 C 196.035 296.512,215.773 296.540,223.200 295.175 C 225.362 294.778,231.102 293.455,233.600 292.779 C 239.881 291.079,241.123 290.709,242.200 290.217 C 246.280 288.354,248.181 287.600,248.799 287.600 C 249.186 287.600,249.726 287.330,250.000 287.000 C 250.274 286.670,250.701 286.399,250.949 286.398 C 251.197 286.396,251.940 286.108,252.600 285.758 C 253.260 285.407,254.970 284.500,256.400 283.742 C 272.221 275.355,288.253 259.756,296.219 245.000 C 296.812 243.900,297.713 242.280,298.221 241.400 C 298.728 240.520,299.798 238.270,300.598 236.400 C 301.398 234.530,302.295 232.460,302.591 231.800 C 303.895 228.893,304.603 226.687,306.183 220.600 C 306.526 219.280,307.007 217.584,307.254 216.832 C 307.500 216.079,307.934 213.829,308.218 211.832 C 308.502 209.834,308.946 206.850,309.205 205.200 C 309.501 203.313,309.624 198.771,309.538 192.961 C 309.355 180.686,309.439 180.790,303.332 185.311 C 288.778 196.084,269.920 197.921,253.901 190.125 C 252.404 189.396,251.092 188.800,250.985 188.800 C 250.879 188.800,249.849 188.143,248.696 187.339 C 235.329 178.023,228.683 166.439,227.314 150.067 C 226.880 144.868,228.949 134.943,231.636 129.339 C 232.496 127.546,233.200 125.973,233.200 125.845 C 233.200 125.244,238.323 118.706,240.718 116.250 C 244.159 112.722,250.353 108.000,251.541 108.000 C 252.098 108.000,254.000 106.083,254.000 105.521 C 254.000 105.322,253.325 104.889,252.500 104.559 C 251.675 104.229,250.460 103.706,249.800 103.395 C 244.911 101.097,242.341 100.000,241.847 100.000 C 241.530 100.000,240.310 99.666,239.136 99.257 C 232.695 97.015,226.200 95.518,220.800 95.031 C 219.150 94.882,216.720 94.599,215.400 94.402 C 211.873 93.876,205.903 93.709,201.800 94.020 M217.600 95.641 C 221.230 95.886,224.396 96.244,224.635 96.438 C 224.874 96.632,226.489 96.987,228.224 97.229 C 229.959 97.470,231.685 97.831,232.059 98.031 C 232.433 98.232,233.666 98.594,234.800 98.837 C 235.934 99.081,237.343 99.531,237.931 99.837 C 238.519 100.144,239.363 100.396,239.806 100.398 C 240.249 100.399,241.284 100.760,242.104 101.200 C 242.925 101.640,243.877 102.000,244.219 102.000 C 244.562 102.000,245.507 102.343,246.321 102.763 C 248.843 104.063,251.467 105.200,251.944 105.200 C 252.553 105.200,252.520 105.445,251.754 106.614 C 251.399 107.156,250.867 107.600,250.572 107.600 C 250.111 107.600,247.869 108.901,246.600 109.905 C 246.380 110.079,245.394 110.847,244.408 111.611 C 237.711 116.802,230.430 126.862,229.340 132.430 C 229.192 133.184,228.841 134.160,228.560 134.600 C 228.278 135.040,227.932 136.390,227.791 137.600 C 227.650 138.810,227.279 140.479,226.967 141.308 C 226.171 143.426,226.185 153.157,226.988 155.600 C 227.313 156.590,227.687 158.435,227.818 159.700 C 227.950 160.965,228.315 162.258,228.629 162.572 C 228.943 162.886,229.200 163.565,229.200 164.080 C 229.200 165.152,232.579 171.926,234.744 175.195 C 237.213 178.923,245.218 186.613,248.507 188.418 C 251.433 190.023,256.503 192.410,257.516 192.660 C 258.112 192.806,258.960 193.159,259.400 193.443 C 259.840 193.727,261.010 194.074,262.000 194.214 C 262.990 194.354,264.520 194.757,265.400 195.110 C 267.608 195.996,282.083 195.984,283.846 195.094 C 284.481 194.774,285.882 194.397,286.960 194.256 C 288.038 194.114,289.460 193.729,290.121 193.399 C 290.782 193.070,291.503 192.800,291.723 192.800 C 292.131 192.800,295.214 191.436,298.341 189.871 C 299.298 189.392,300.173 188.775,300.284 188.500 C 300.395 188.225,300.713 188.000,300.990 188.000 C 301.645 188.000,306.800 184.024,306.800 183.519 C 306.800 182.494,307.841 183.654,308.159 185.033 C 308.845 188.002,308.911 201.513,308.255 204.800 C 307.926 206.450,307.554 209.221,307.428 210.959 C 307.303 212.696,307.011 214.346,306.779 214.626 C 306.547 214.905,306.167 216.355,305.935 217.848 C 305.702 219.341,305.283 220.931,305.004 221.381 C 304.724 221.831,304.386 223.067,304.252 224.127 C 304.118 225.186,303.736 226.441,303.404 226.916 C 303.072 227.390,302.799 228.143,302.797 228.589 C 302.796 229.035,302.437 229.940,302.000 230.600 C 301.563 231.260,301.204 232.132,301.203 232.538 C 301.201 232.944,300.937 233.754,300.615 234.338 C 300.293 234.922,299.392 236.750,298.612 238.400 C 297.162 241.469,295.135 245.327,294.409 246.400 C 294.186 246.730,293.058 248.448,291.902 250.218 C 286.192 258.960,274.604 271.058,267.500 275.695 C 266.455 276.377,265.600 277.072,265.600 277.240 C 265.600 277.409,265.223 277.666,264.762 277.812 C 264.302 277.958,263.087 278.644,262.062 279.337 C 260.068 280.685,259.349 281.094,255.000 283.351 C 253.460 284.150,251.930 284.962,251.600 285.155 C 250.561 285.762,247.326 287.200,247.000 287.200 C 246.719 287.200,245.477 287.736,241.800 289.444 C 241.140 289.750,239.747 290.157,238.704 290.348 C 237.661 290.539,236.581 290.879,236.304 291.103 C 236.027 291.327,234.810 291.642,233.600 291.802 C 232.390 291.963,230.931 292.334,230.358 292.627 C 229.785 292.920,227.847 293.345,226.051 293.570 C 224.255 293.795,222.384 294.209,221.893 294.490 C 220.442 295.319,193.207 295.185,190.800 294.337 C 189.810 293.988,187.830 293.584,186.400 293.438 C 184.970 293.292,183.260 292.926,182.600 292.625 C 181.940 292.324,180.500 291.893,179.400 291.668 C 176.556 291.086,173.210 290.094,171.740 289.397 C 171.046 289.069,170.326 288.803,170.140 288.806 C 169.953 288.809,168.090 288.070,166.000 287.163 C 160.155 284.628,160.820 284.944,158.500 283.592 C 158.115 283.368,157.260 282.915,156.600 282.586 C 154.083 281.332,145.898 275.976,145.480 275.310 C 145.304 275.029,144.978 274.800,144.756 274.800 C 143.578 274.800,131.949 263.971,128.515 259.675 C 127.515 258.424,126.495 257.220,126.248 257.000 C 125.380 256.225,120.676 249.545,118.924 246.600 C 116.178 241.982,111.835 233.014,111.370 231.000 C 111.217 230.340,110.862 229.530,110.580 229.200 C 110.298 228.870,109.942 227.880,109.789 227.000 C 109.636 226.120,109.260 225.001,108.955 224.514 C 108.650 224.027,108.392 223.127,108.382 222.514 C 108.373 221.901,108.088 220.680,107.750 219.800 C 107.411 218.920,106.895 216.940,106.601 215.400 C 106.308 213.860,105.837 211.790,105.555 210.800 C 104.796 208.136,104.806 180.992,105.567 179.624 C 105.865 179.087,106.341 177.197,106.625 175.424 C 106.908 173.651,107.416 171.480,107.752 170.600 C 108.089 169.720,108.373 168.336,108.382 167.524 C 108.392 166.712,108.575 165.939,108.789 165.807 C 109.003 165.674,109.376 164.809,109.618 163.883 C 109.859 162.957,110.404 161.468,110.829 160.574 C 111.253 159.679,111.606 158.689,111.613 158.374 C 111.620 158.058,111.890 157.451,112.213 157.024 C 112.536 156.596,112.800 155.946,112.800 155.577 C 112.800 155.209,113.133 154.479,113.539 153.954 C 113.945 153.429,114.410 152.461,114.571 151.802 C 114.732 151.143,115.028 150.407,115.228 150.166 C 115.428 149.925,116.154 148.664,116.841 147.364 C 117.529 146.064,118.340 144.716,118.645 144.369 C 118.950 144.021,119.200 143.623,119.200 143.484 C 119.200 143.020,125.095 134.530,126.385 133.135 C 126.723 132.769,127.720 131.602,128.600 130.541 C 130.797 127.893,137.360 121.382,140.014 119.217 C 141.216 118.237,142.470 117.206,142.800 116.926 C 144.395 115.574,148.010 112.800,148.177 112.800 C 148.357 112.800,150.968 111.145,151.800 110.503 C 152.020 110.333,152.650 109.967,153.200 109.689 C 153.750 109.411,154.920 108.756,155.800 108.233 C 158.520 106.616,164.667 103.600,165.248 103.597 C 165.552 103.596,166.340 103.237,167.000 102.800 C 167.660 102.363,168.470 101.998,168.800 101.989 C 169.130 101.980,170.120 101.625,171.000 101.200 C 171.880 100.775,172.960 100.420,173.400 100.411 C 173.840 100.402,174.681 100.144,175.269 99.837 C 175.857 99.531,177.285 99.077,178.442 98.828 C 179.599 98.580,180.744 98.212,180.987 98.010 C 181.231 97.809,182.791 97.475,184.455 97.268 C 186.119 97.061,187.822 96.710,188.240 96.487 C 188.658 96.263,192.420 95.862,196.600 95.595 C 200.780 95.327,204.290 95.019,204.400 94.909 C 204.510 94.799,206.040 94.819,207.800 94.952 C 209.560 95.086,213.970 95.396,217.600 95.641 " stroke="none" fill="#7c7489" fill-rule="evenodd"></path><path id="path4" d="M185.175 49.605 C 177.239 49.869,176.887 49.915,175.140 50.939 C 173.681 51.794,172.822 52.000,170.717 52.000 C 166.542 52.000,161.659 53.026,158.576 54.550 C 157.007 55.327,154.844 56.037,153.600 56.185 C 147.159 56.950,142.676 58.290,141.400 59.834 C 140.811 60.546,137.121 62.400,136.291 62.400 C 135.033 62.400,130.641 64.434,129.400 65.592 C 127.725 67.154,126.168 67.864,122.752 68.623 C 119.476 69.352,118.541 69.841,116.200 72.053 C 114.473 73.686,111.847 75.837,110.407 76.800 C 108.552 78.040,106.923 79.458,105.239 81.298 C 104.082 82.562,102.977 83.337,101.928 83.619 C 100.563 83.987,92.666 91.331,86.869 97.624 C 86.577 97.941,85.837 98.708,85.224 99.330 C 84.611 99.951,83.908 101.128,83.663 101.946 C 83.378 102.900,82.357 104.252,80.816 105.720 C 79.495 106.977,78.103 108.500,77.723 109.103 C 76.394 111.214,73.390 114.983,72.263 115.954 C 70.235 117.701,69.249 119.767,68.507 123.827 C 67.823 127.562,67.737 127.752,65.892 129.542 C 64.060 131.322,62.400 134.566,62.400 136.370 C 62.400 136.777,61.595 138.700,60.611 140.644 C 59.627 142.588,58.704 144.994,58.560 145.989 C 58.415 146.985,57.795 148.790,57.182 150.000 C 56.568 151.210,55.679 153.730,55.206 155.600 C 54.734 157.470,54.006 160.258,53.589 161.795 C 53.172 163.332,52.718 166.572,52.579 168.995 C 52.441 171.418,52.085 174.120,51.789 175.000 C 51.211 176.714,50.340 189.159,50.105 199.036 C 49.983 204.193,50.115 205.942,51.011 211.036 C 51.587 214.316,52.281 219.038,52.551 221.528 C 52.863 224.402,53.237 226.176,53.574 226.384 C 53.867 226.565,54.247 227.587,54.420 228.656 C 54.593 229.725,54.821 231.050,54.927 231.600 C 55.033 232.150,55.326 233.726,55.578 235.101 C 55.830 236.477,56.836 239.315,57.814 241.408 C 58.792 243.501,59.800 246.065,60.055 247.106 C 60.310 248.148,60.941 249.736,61.459 250.635 C 61.977 251.534,62.401 252.704,62.402 253.235 C 62.406 255.005,63.207 257.121,64.687 259.271 C 65.493 260.442,67.664 264.370,69.510 268.000 C 71.357 271.630,73.282 275.050,73.788 275.600 C 74.294 276.150,75.008 277.193,75.373 277.917 C 75.739 278.641,77.020 279.991,78.219 280.917 C 80.323 282.540,81.146 283.786,82.938 288.062 C 83.403 289.172,84.028 289.752,85.526 290.462 C 87.370 291.338,90.498 294.477,93.600 298.565 C 94.150 299.289,95.489 300.314,96.574 300.841 C 98.068 301.566,98.750 302.207,99.374 303.472 C 99.880 304.497,100.775 305.472,101.685 305.990 C 102.502 306.454,103.672 307.440,104.285 308.179 C 105.661 309.839,111.837 314.305,114.802 315.784 C 116.011 316.386,117.900 317.741,119.000 318.794 C 120.100 319.847,121.640 320.912,122.421 321.160 C 123.203 321.407,124.796 322.224,125.960 322.974 C 127.125 323.725,129.095 324.746,130.339 325.243 C 132.923 326.277,135.166 327.595,135.951 328.541 C 137.347 330.223,143.007 332.374,146.088 332.393 C 146.687 332.397,148.136 332.839,149.310 333.376 C 150.483 333.912,152.423 334.478,153.621 334.632 C 154.820 334.785,157.240 335.443,159.000 336.093 C 162.725 337.469,166.948 338.362,169.840 338.384 C 172.005 338.401,174.209 338.988,175.200 339.812 C 175.605 340.149,178.916 340.457,185.400 340.761 C 190.680 341.008,196.890 341.362,199.200 341.547 C 201.521 341.734,204.563 341.730,206.000 341.539 C 212.084 340.732,215.265 340.380,219.600 340.034 C 222.130 339.833,224.732 339.463,225.381 339.213 C 226.031 338.963,228.661 338.498,231.226 338.181 C 235.864 337.607,237.952 337.066,240.380 335.811 C 241.078 335.449,243.304 334.806,245.325 334.380 C 252.755 332.816,257.704 331.342,258.691 330.398 C 259.081 330.025,259.981 329.073,260.690 328.282 C 261.739 327.112,262.691 326.623,265.789 325.664 C 268.333 324.876,270.068 324.072,271.013 323.242 C 271.791 322.559,272.700 322.000,273.033 322.000 C 274.143 322.000,280.320 317.990,282.676 315.741 C 283.954 314.520,285.540 313.244,286.200 312.905 C 286.860 312.566,287.490 312.175,287.600 312.036 C 287.710 311.897,288.250 311.550,288.800 311.265 C 293.097 309.037,294.634 307.866,298.804 303.645 C 300.676 301.750,303.096 299.570,304.182 298.800 C 307.141 296.701,308.218 295.585,309.201 293.600 C 309.691 292.610,311.399 290.534,312.995 288.987 C 314.848 287.192,315.994 285.738,316.163 284.968 C 316.437 283.723,317.200 282.771,319.780 280.454 C 320.604 279.714,321.548 278.454,321.876 277.654 C 322.204 276.854,322.978 275.660,323.595 275.000 C 324.212 274.340,324.841 273.211,324.993 272.490 C 325.299 271.030,326.990 268.800,327.790 268.800 C 328.578 268.800,329.453 267.217,330.624 263.674 C 331.412 261.288,332.122 259.994,333.386 258.637 C 334.551 257.385,335.302 256.084,335.767 254.505 C 336.142 253.237,336.686 251.652,336.979 250.981 C 337.271 250.311,337.727 248.691,337.993 247.381 C 338.259 246.072,339.163 243.650,340.002 242.000 C 342.089 237.896,342.799 236.210,342.806 235.340 C 342.809 234.933,343.071 233.880,343.388 233.000 C 343.705 232.120,343.977 230.500,343.991 229.400 C 344.006 228.300,344.369 226.627,344.797 225.682 C 345.350 224.465,345.696 222.362,345.984 218.482 C 346.208 215.467,346.743 211.110,347.174 208.800 C 348.343 202.531,347.634 177.346,346.201 174.200 C 345.560 172.795,345.212 171.069,345.030 168.400 C 344.750 164.300,344.007 160.282,343.290 159.000 C 342.640 157.837,341.704 154.498,341.401 152.259 C 341.257 151.192,340.793 149.752,340.371 149.059 C 339.949 148.367,339.602 147.402,339.601 146.915 C 339.599 145.456,338.058 141.794,337.047 140.844 C 336.067 139.924,335.414 138.536,334.217 134.826 C 333.831 133.631,332.830 131.741,331.994 130.626 C 331.157 129.512,330.260 127.790,329.999 126.800 C 329.494 124.881,328.600 123.600,327.765 123.600 C 327.213 123.600,326.996 123.063,326.565 120.637 C 326.206 118.619,325.635 117.548,324.053 115.929 C 323.346 115.206,322.301 113.802,321.730 112.807 C 320.528 110.713,316.368 105.150,314.694 103.400 C 314.063 102.740,313.283 101.660,312.962 101.000 C 312.640 100.340,311.779 99.356,311.048 98.814 C 310.317 98.271,309.341 97.171,308.879 96.369 C 308.418 95.567,307.020 94.031,305.774 92.955 C 304.528 91.880,302.577 90.100,301.438 89.000 C 300.300 87.900,298.116 85.972,296.584 84.716 C 295.053 83.459,292.810 81.616,291.600 80.619 C 285.734 75.788,281.155 72.800,279.620 72.800 C 279.131 72.800,278.800 72.539,278.800 72.153 C 278.800 71.297,275.790 68.400,274.900 68.399 C 274.515 68.399,272.670 67.615,270.800 66.657 C 268.930 65.699,266.410 64.591,265.200 64.196 C 262.942 63.458,262.511 63.233,258.892 60.904 C 257.733 60.158,256.113 59.459,255.292 59.352 C 251.732 58.886,251.207 58.718,249.787 57.590 C 248.964 56.935,247.978 56.400,247.596 56.400 C 247.214 56.400,245.574 55.973,243.951 55.451 C 236.117 52.930,234.170 52.511,229.404 52.320 C 228.187 52.272,226.549 51.820,225.204 51.163 C 221.694 49.446,207.062 48.877,185.175 49.605 M214.000 52.020 C 220.175 52.732,231.980 54.793,234.600 55.616 C 235.260 55.823,238.950 56.919,242.800 58.051 C 246.650 59.182,249.971 60.264,250.180 60.454 C 250.389 60.644,250.842 60.800,251.186 60.800 C 251.530 60.800,252.484 61.160,253.304 61.600 C 254.125 62.040,255.042 62.400,255.342 62.400 C 255.642 62.400,256.899 62.940,258.136 63.600 C 259.373 64.260,260.601 64.800,260.864 64.800 C 261.466 64.800,273.938 71.507,274.935 72.366 C 275.339 72.715,276.805 73.630,278.193 74.400 C 287.504 79.565,307.800 97.187,312.541 104.222 C 313.013 104.923,314.209 106.555,315.197 107.849 C 321.554 116.166,325.353 122.016,328.153 127.800 C 328.899 129.340,330.178 131.770,330.996 133.200 C 331.815 134.630,332.984 137.060,333.595 138.600 C 334.206 140.140,335.357 142.985,336.153 144.922 C 336.949 146.860,337.600 148.759,337.600 149.142 C 337.600 149.526,337.789 150.029,338.019 150.259 C 338.466 150.706,341.467 161.691,342.027 164.928 C 342.210 165.988,342.629 168.058,342.956 169.528 C 345.106 179.170,346.225 209.961,344.503 212.089 C 344.275 212.370,343.968 213.770,343.819 215.200 C 343.475 218.511,342.155 225.591,341.389 228.235 C 341.065 229.354,340.792 230.614,340.782 231.035 C 340.773 231.456,340.491 232.520,340.157 233.400 C 339.822 234.280,339.305 235.810,339.006 236.800 C 337.105 243.112,333.926 251.129,330.995 257.002 C 329.128 260.743,327.600 263.966,327.600 264.164 C 327.600 264.362,327.105 265.168,326.500 265.954 C 325.310 267.501,323.321 270.680,320.965 274.800 C 320.148 276.230,318.901 278.030,318.195 278.800 C 316.979 280.126,314.106 283.844,312.800 285.783 C 311.828 287.225,308.978 290.250,303.212 295.960 C 295.754 303.346,291.464 306.945,284.201 311.908 C 283.322 312.508,281.792 313.609,280.801 314.353 C 279.811 315.097,278.100 316.230,277.000 316.871 C 275.900 317.512,274.730 318.200,274.400 318.400 C 271.168 320.362,263.498 324.471,262.396 324.831 C 261.628 325.081,259.173 326.159,256.941 327.225 C 254.709 328.292,252.369 329.287,251.741 329.437 C 251.113 329.587,250.396 329.870,250.146 330.066 C 249.897 330.261,248.817 330.660,247.746 330.951 C 246.676 331.243,243.640 332.117,241.000 332.893 C 235.193 334.600,230.096 335.841,227.400 336.205 C 226.300 336.353,225.220 336.619,225.000 336.795 C 224.780 336.971,222.080 337.321,219.000 337.573 C 215.920 337.824,212.695 338.219,211.833 338.449 C 209.778 338.997,189.125 338.978,185.200 338.424 C 183.550 338.191,180.310 337.820,178.000 337.599 C 175.690 337.379,172.916 336.929,171.836 336.599 C 170.756 336.270,169.382 336.000,168.782 336.000 C 168.183 336.000,166.816 335.738,165.746 335.417 C 164.676 335.097,161.010 334.091,157.600 333.182 C 154.190 332.273,150.410 331.108,149.200 330.593 C 147.990 330.078,145.832 329.255,144.404 328.764 C 142.976 328.273,141.266 327.541,140.604 327.137 C 139.942 326.733,139.144 326.402,138.831 326.401 C 138.519 326.401,137.979 326.145,137.631 325.834 C 137.284 325.523,136.460 325.118,135.800 324.934 C 134.788 324.652,129.559 321.915,123.656 318.576 C 122.855 318.123,120.381 316.548,118.158 315.076 C 115.935 313.604,113.998 312.400,113.852 312.400 C 113.707 312.400,112.556 311.592,111.294 310.603 C 101.875 303.228,94.089 296.112,89.273 290.477 C 88.463 289.529,86.931 287.819,85.869 286.677 C 84.806 285.535,83.604 283.958,83.198 283.173 C 82.791 282.389,82.144 281.489,81.759 281.173 C 80.670 280.282,75.296 272.935,74.984 271.913 C 74.831 271.411,74.414 270.668,74.057 270.263 C 72.642 268.654,62.400 248.785,62.400 247.649 C 62.400 247.339,61.770 245.493,61.000 243.546 C 60.230 241.599,59.599 239.779,59.598 239.503 C 59.596 239.226,59.344 238.520,59.038 237.933 C 58.732 237.346,58.350 236.086,58.190 235.133 C 58.030 234.180,57.562 232.342,57.150 231.048 C 56.737 229.754,56.400 228.129,56.400 227.437 C 56.400 226.745,56.147 225.817,55.837 225.375 C 55.528 224.933,55.153 223.678,55.005 222.586 C 54.856 221.494,54.489 219.340,54.188 217.800 C 53.235 212.919,52.283 197.533,52.555 191.400 C 52.977 181.862,53.526 175.509,54.162 172.800 C 54.497 171.370,54.778 169.673,54.786 169.028 C 54.794 168.384,55.141 166.764,55.558 165.428 C 55.975 164.093,56.500 162.100,56.725 161.000 C 57.350 157.938,59.401 150.699,59.898 149.800 C 60.141 149.360,60.607 148.190,60.932 147.200 C 62.070 143.740,62.815 141.792,63.405 140.738 C 63.732 140.154,64.000 139.404,64.000 139.072 C 64.000 137.694,73.906 119.388,75.986 116.923 C 76.207 116.661,76.889 115.657,77.500 114.693 C 84.625 103.459,103.489 84.584,114.625 77.548 C 115.711 76.861,116.690 76.164,116.800 75.998 C 117.133 75.495,124.267 71.276,127.713 69.543 C 129.492 68.649,131.589 67.514,132.374 67.021 C 133.158 66.529,134.970 65.633,136.400 65.029 C 137.830 64.426,139.540 63.682,140.200 63.375 C 140.860 63.068,143.450 62.000,145.956 61.002 C 149.988 59.395,152.394 58.655,160.200 56.619 C 161.300 56.333,162.650 55.905,163.200 55.670 C 164.656 55.047,171.239 53.716,175.400 53.203 C 177.380 52.959,179.843 52.573,180.873 52.346 C 185.386 51.351,206.401 51.144,214.000 52.020 M196.200 93.629 C 194.660 93.836,192.878 94.184,192.240 94.403 C 191.602 94.621,190.252 94.804,189.240 94.810 C 188.228 94.815,186.680 95.009,185.800 95.241 C 184.920 95.473,183.054 95.901,181.654 96.191 C 180.254 96.482,178.454 96.985,177.654 97.309 C 176.854 97.634,175.480 98.086,174.600 98.314 C 172.706 98.804,169.898 99.806,168.140 100.618 C 167.446 100.938,166.631 101.200,166.329 101.200 C 166.026 101.200,165.423 101.449,164.988 101.753 C 164.554 102.057,163.029 102.799,161.599 103.400 C 160.170 104.002,157.593 105.328,155.874 106.347 C 154.155 107.366,152.175 108.519,151.474 108.910 C 150.773 109.300,149.741 109.930,149.181 110.310 C 148.621 110.689,147.496 111.423,146.681 111.940 C 145.866 112.456,145.200 113.041,145.200 113.240 C 145.200 113.438,144.932 113.600,144.603 113.600 C 144.275 113.600,143.782 113.960,143.507 114.400 C 143.232 114.840,142.790 115.200,142.524 115.200 C 142.258 115.200,141.896 115.441,141.720 115.735 C 141.544 116.030,141.103 116.435,140.740 116.635 C 139.629 117.249,136.511 120.020,132.664 123.812 C 129.341 127.087,128.102 128.465,125.461 131.816 C 124.987 132.417,123.925 133.641,123.100 134.537 C 122.275 135.432,121.599 136.353,121.598 136.582 C 121.597 136.812,120.922 137.912,120.098 139.027 C 119.274 140.142,118.358 141.472,118.062 141.982 C 116.602 144.501,115.820 145.897,115.309 146.892 C 115.001 147.493,114.595 148.080,114.405 148.197 C 114.216 148.314,113.946 148.935,113.805 149.577 C 113.664 150.219,113.290 150.959,112.974 151.221 C 112.658 151.483,112.394 151.991,112.387 152.349 C 112.381 152.707,111.932 153.900,111.391 155.000 C 110.850 156.100,110.406 157.293,110.404 157.651 C 110.402 158.009,110.135 158.522,109.811 158.791 C 109.486 159.060,109.103 159.937,108.958 160.740 C 108.814 161.543,108.517 162.425,108.298 162.701 C 108.079 162.977,107.666 164.237,107.380 165.501 C 107.095 166.765,106.585 168.520,106.248 169.400 C 105.911 170.280,105.627 171.491,105.618 172.092 C 105.608 172.692,105.335 173.862,105.010 174.692 C 104.686 175.521,104.236 177.820,104.011 179.800 C 103.786 181.780,103.435 184.390,103.230 185.600 C 102.639 189.097,102.724 201.841,103.363 205.648 C 103.673 207.491,104.050 210.260,104.200 211.800 C 104.350 213.340,104.713 215.140,105.007 215.800 C 105.302 216.460,105.666 217.990,105.818 219.200 C 105.970 220.410,106.327 221.856,106.613 222.414 C 106.898 222.971,107.257 224.141,107.411 225.014 C 107.564 225.886,107.912 226.960,108.185 227.400 C 108.457 227.840,108.806 228.884,108.962 229.721 C 109.117 230.558,109.483 231.334,109.775 231.446 C 110.067 231.558,110.415 232.335,110.549 233.173 C 110.683 234.011,111.064 234.922,111.396 235.197 C 111.728 235.473,112.000 235.994,112.000 236.357 C 112.000 237.014,114.814 242.772,116.616 245.800 C 117.140 246.680,117.871 247.940,118.240 248.600 C 118.609 249.260,119.022 249.890,119.157 250.000 C 119.292 250.110,119.937 251.010,120.590 252.000 C 121.243 252.990,122.143 254.270,122.589 254.844 C 123.035 255.419,123.670 256.290,124.000 256.780 C 124.330 257.270,124.960 258.091,125.400 258.605 C 125.840 259.119,126.920 260.383,127.800 261.413 C 130.010 264.001,134.563 268.531,137.200 270.765 C 138.410 271.791,140.025 273.208,140.789 273.915 C 141.553 274.622,142.292 275.200,142.431 275.200 C 142.570 275.200,143.140 275.605,143.699 276.100 C 145.762 277.928,153.859 283.200,154.603 283.200 C 154.900 283.200,155.399 283.457,155.713 283.770 C 156.027 284.084,156.895 284.620,157.642 284.962 C 158.389 285.304,159.270 285.741,159.600 285.933 C 159.930 286.125,161.100 286.690,162.200 287.190 C 163.300 287.689,164.866 288.435,165.679 288.849 C 166.493 289.262,167.428 289.600,167.756 289.600 C 168.085 289.600,168.950 289.943,169.677 290.361 C 170.405 290.780,171.630 291.251,172.400 291.407 C 173.170 291.564,174.006 291.858,174.258 292.060 C 174.509 292.262,175.677 292.542,176.853 292.681 C 178.029 292.820,179.218 293.161,179.495 293.438 C 179.773 293.716,181.029 294.071,182.287 294.228 C 183.546 294.385,185.207 294.778,185.980 295.101 C 186.752 295.424,189.278 295.841,191.592 296.028 C 193.906 296.215,196.700 296.545,197.800 296.760 C 200.989 297.385,212.568 297.278,215.800 296.593 C 217.340 296.267,219.776 296.000,221.213 296.000 C 222.650 296.000,224.810 295.719,226.013 295.375 C 227.216 295.031,229.249 294.582,230.530 294.377 C 231.812 294.171,233.247 293.732,233.719 293.401 C 234.192 293.071,235.213 292.796,235.989 292.791 C 236.765 292.786,238.122 292.455,239.004 292.054 C 239.886 291.653,241.263 291.202,242.064 291.052 C 242.865 290.902,243.740 290.514,244.009 290.189 C 244.278 289.865,244.771 289.600,245.105 289.600 C 245.439 289.600,246.497 289.240,247.456 288.800 C 248.415 288.360,250.055 287.629,251.100 287.175 C 252.145 286.722,253.270 286.180,253.600 285.972 C 253.930 285.764,254.650 285.378,255.200 285.113 C 255.750 284.848,256.629 284.310,257.154 283.916 C 257.679 283.522,258.347 283.200,258.638 283.200 C 258.930 283.200,260.623 282.210,262.400 281.000 C 264.177 279.790,265.773 278.800,265.946 278.800 C 266.119 278.800,266.683 278.350,267.200 277.800 C 267.717 277.250,268.369 276.800,268.650 276.800 C 268.931 276.800,269.304 276.574,269.480 276.298 C 269.656 276.021,270.795 275.056,272.011 274.152 C 273.226 273.248,274.996 271.765,275.943 270.855 C 276.890 269.945,277.721 269.200,277.790 269.200 C 277.901 269.200,283.574 263.426,285.260 261.596 C 285.623 261.202,286.871 259.647,288.032 258.140 C 289.193 256.633,290.252 255.310,290.386 255.200 C 290.606 255.018,293.233 251.210,294.200 249.670 C 294.420 249.320,294.825 248.789,295.099 248.489 C 295.374 248.189,295.709 247.507,295.843 246.972 C 295.977 246.437,296.220 246.000,296.383 246.000 C 296.545 246.000,296.972 245.325,297.330 244.500 C 297.689 243.675,298.514 242.100,299.164 241.000 C 299.815 239.900,300.359 238.709,300.373 238.354 C 300.388 237.999,300.760 237.250,301.200 236.691 C 301.640 236.131,302.000 235.430,302.000 235.131 C 302.000 234.832,302.332 233.961,302.739 233.194 C 303.145 232.427,303.601 231.260,303.752 230.600 C 303.904 229.940,304.269 228.860,304.565 228.200 C 305.466 226.187,306.070 224.313,306.630 221.800 C 306.924 220.480,307.443 218.612,307.782 217.650 C 308.122 216.687,308.400 215.044,308.400 213.999 C 308.400 212.953,308.710 211.401,309.088 210.549 C 309.951 208.606,310.390 186.132,309.620 183.275 C 308.975 180.878,307.652 180.613,305.669 182.483 C 303.021 184.979,300.642 186.699,298.000 188.027 C 296.570 188.745,295.310 189.465,295.200 189.625 C 295.090 189.786,294.235 190.123,293.300 190.374 C 292.365 190.625,291.600 191.004,291.600 191.215 C 291.600 191.427,291.117 191.600,290.526 191.600 C 289.936 191.600,288.721 191.933,287.826 192.341 C 285.355 193.466,275.382 194.490,271.600 194.006 C 269.950 193.794,267.279 193.499,265.663 193.349 C 264.048 193.199,262.075 192.744,261.279 192.338 C 260.482 191.932,259.351 191.600,258.764 191.600 C 258.178 191.600,257.489 191.348,257.233 191.039 C 256.977 190.731,256.280 190.357,255.684 190.208 C 255.088 190.059,254.330 189.703,254.000 189.416 C 253.670 189.129,252.950 188.762,252.400 188.600 C 251.850 188.437,250.367 187.606,249.105 186.752 C 247.842 185.899,246.734 185.200,246.643 185.200 C 246.253 185.200,238.000 177.382,238.000 177.012 C 238.000 176.942,236.988 175.391,235.752 173.565 C 234.516 171.739,233.328 169.739,233.113 169.122 C 232.898 168.505,232.574 168.000,232.393 168.000 C 232.212 168.000,231.942 167.415,231.793 166.700 C 231.643 165.985,231.293 165.038,231.014 164.596 C 230.736 164.154,230.298 162.816,230.042 161.623 C 229.787 160.431,229.357 159.190,229.089 158.866 C 228.401 158.037,228.392 138.773,229.080 137.945 C 229.343 137.627,229.757 136.475,229.998 135.384 C 230.408 133.536,231.565 130.591,232.429 129.200 C 232.634 128.870,232.981 128.150,233.201 127.600 C 233.420 127.050,233.780 126.330,234.001 126.000 C 234.221 125.670,234.577 124.995,234.791 124.500 C 235.005 124.005,235.343 123.600,235.542 123.600 C 235.740 123.600,236.137 123.035,236.423 122.344 C 237.140 120.613,244.873 112.882,247.800 110.970 C 249.120 110.108,250.344 109.177,250.520 108.901 C 250.696 108.626,251.342 108.400,251.956 108.400 C 252.788 108.400,253.342 108.021,254.132 106.910 C 255.405 105.122,255.286 104.957,251.600 103.388 C 250.170 102.779,247.858 101.760,246.461 101.123 C 245.065 100.486,243.390 99.858,242.739 99.728 C 242.088 99.598,240.898 99.156,240.093 98.746 C 239.289 98.336,238.267 98.000,237.823 98.000 C 237.379 98.000,236.112 97.658,235.008 97.240 C 232.086 96.133,226.005 94.800,223.878 94.800 C 222.866 94.800,220.995 94.510,219.720 94.157 C 216.947 93.387,200.705 93.023,196.200 93.629 M215.400 94.402 C 216.720 94.599,219.150 94.882,220.800 95.031 C 226.200 95.518,232.695 97.015,239.136 99.257 C 240.310 99.666,241.530 100.000,241.847 100.000 C 242.341 100.000,244.911 101.097,249.800 103.395 C 250.460 103.706,251.675 104.229,252.500 104.559 C 253.325 104.889,254.000 105.322,254.000 105.521 C 254.000 106.083,252.098 108.000,251.541 108.000 C 250.353 108.000,244.159 112.722,240.718 116.250 C 238.323 118.706,233.200 125.244,233.200 125.845 C 233.200 125.973,232.496 127.546,231.636 129.339 C 228.949 134.943,226.880 144.868,227.314 150.067 C 228.683 166.439,235.329 178.023,248.696 187.339 C 249.849 188.143,250.879 188.800,250.985 188.800 C 251.092 188.800,252.404 189.396,253.901 190.125 C 269.920 197.921,288.778 196.084,303.332 185.311 C 309.439 180.790,309.355 180.686,309.538 192.961 C 309.624 198.771,309.501 203.313,309.205 205.200 C 308.946 206.850,308.502 209.834,308.218 211.832 C 307.934 213.829,307.500 216.079,307.254 216.832 C 307.007 217.584,306.526 219.280,306.183 220.600 C 304.603 226.687,303.895 228.893,302.591 231.800 C 302.295 232.460,301.398 234.530,300.598 236.400 C 299.798 238.270,298.728 240.520,298.221 241.400 C 297.713 242.280,296.812 243.900,296.219 245.000 C 288.253 259.756,272.221 275.355,256.400 283.742 C 254.970 284.500,253.260 285.407,252.600 285.758 C 251.940 286.108,251.197 286.396,250.949 286.398 C 250.701 286.399,250.274 286.670,250.000 287.000 C 249.726 287.330,249.186 287.600,248.799 287.600 C 248.181 287.600,246.280 288.354,242.200 290.217 C 241.123 290.709,239.881 291.079,233.600 292.779 C 231.102 293.455,225.362 294.778,223.200 295.175 C 215.773 296.540,196.035 296.512,189.600 295.128 C 188.610 294.915,186.630 294.510,185.200 294.229 C 183.770 293.947,181.739 293.420,180.686 293.058 C 179.633 292.696,178.553 292.403,178.286 292.406 C 177.512 292.415,172.358 290.780,170.556 289.954 C 169.652 289.539,168.706 289.200,168.455 289.200 C 168.203 289.200,167.325 288.840,166.504 288.400 C 165.684 287.960,164.793 287.600,164.525 287.600 C 164.072 287.600,161.475 286.294,155.925 283.274 C 142.579 276.014,128.301 262.992,120.759 251.200 C 117.704 246.425,116.800 244.916,116.800 244.596 C 116.800 244.413,116.550 243.979,116.245 243.631 C 115.690 243.000,114.050 239.839,112.909 237.200 C 112.576 236.430,111.965 235.134,111.552 234.321 C 111.138 233.507,110.799 232.607,110.798 232.321 C 110.796 232.034,110.511 231.260,110.164 230.600 C 109.817 229.940,109.100 227.960,108.571 226.200 C 108.041 224.440,107.349 222.190,107.032 221.200 C 106.715 220.210,106.252 218.258,106.003 216.861 C 105.754 215.465,105.391 213.903,105.197 213.391 C 103.076 207.814,103.221 183.328,105.418 176.089 C 105.733 175.050,105.991 173.840,105.990 173.400 C 105.989 172.960,106.344 171.430,106.778 170.000 C 107.212 168.570,108.029 165.870,108.593 164.000 C 109.156 162.130,109.868 160.060,110.173 159.400 C 110.479 158.740,111.505 156.400,112.454 154.200 C 114.333 149.841,117.997 143.139,120.287 139.868 C 121.084 138.731,122.110 137.262,122.568 136.605 C 126.033 131.629,132.416 124.617,137.332 120.385 C 139.494 118.523,141.778 116.544,142.406 115.987 C 144.099 114.487,150.606 110.077,153.167 108.694 C 154.395 108.030,155.670 107.277,156.000 107.020 C 156.850 106.357,162.915 103.435,166.000 102.203 C 167.430 101.632,168.960 100.999,169.400 100.796 C 170.900 100.106,174.996 98.755,176.695 98.390 C 177.627 98.190,178.923 97.750,179.575 97.413 C 180.227 97.076,181.181 96.800,181.696 96.800 C 182.211 96.800,183.666 96.531,184.930 96.201 C 187.368 95.566,195.809 94.475,201.800 94.020 C 205.903 93.709,211.873 93.876,215.400 94.402 M331.854 272.998 C 331.981 273.326,332.245 273.496,332.442 273.374 C 333.007 273.025,332.860 272.400,332.213 272.400 C 331.856 272.400,331.715 272.635,331.854 272.998 " stroke="none" fill="#99dcd6" fill-rule="evenodd"></path></g></svg>